<svg width="320" height="320" viewBox="0 0 320 320" fill="none" xmlns="http://www.w3.org/2000/svg">
<rect x="2" y="2" width="316" height="316" stroke="white" stroke-width="4"/>
<path d="M69.9375 159V115.25H76.9375V159H69.9375ZM80.125 139.25V132.438H84.3125C87.3542 132.438 89 130.958 89.25 128C89.25 127.75 89.25 127.5 89.25 127.25C88.9583 123.958 87.3125 122.229 84.3125 122.062H80.125V115.25H84.875C92.4583 115.375 96.2708 119.333 96.3125 127.125C96.3125 133.167 94.3958 136.938 90.5625 138.438C88.9792 138.979 87.0833 139.25 84.875 139.25C84.7917 139.25 83.2083 139.25 80.125 139.25ZM99.75 146.812V126.25C99.75 124.042 100.688 121.792 102.562 119.5C105.062 116.5 108.229 114.979 112.062 114.938V121.875C109.896 121.917 108.271 123.083 107.188 125.375C106.854 126.125 106.688 126.75 106.688 127.25V146.812C106.688 149.062 107.854 150.729 110.188 151.812C110.896 152.146 111.5 152.312 112 152.312V159.312C109.625 159.312 107.25 158.458 104.875 156.75C101.5 154.25 99.7917 150.938 99.75 146.812ZM115.438 159.312V152.312C116.521 152.312 117.646 151.812 118.812 150.812C120.062 149.688 120.708 148.354 120.75 146.812V127.25C120.75 126 120.208 124.792 119.125 123.625C118.083 122.5 116.854 121.917 115.438 121.875V114.938C119.646 114.938 123.021 116.75 125.562 120.375C127.021 122.458 127.75 124.417 127.75 126.25V146.812C127.75 151.438 125.688 154.979 121.562 157.438C119.396 158.688 117.354 159.312 115.438 159.312ZM132.75 159V115.25H139.75V159H132.75ZM142.938 140.562V134.312H146.438C150.062 134.312 152.062 132.583 152.438 129.125C152.479 128.75 152.5 128.396 152.5 128.062C152.5 124.562 150.917 122.5 147.75 121.875C147.167 121.792 146.562 121.75 145.938 121.75H142.938V115.25H146.75C152.292 115.375 156.021 117.438 157.938 121.438C158.729 123.104 159.125 125.021 159.125 127.188C159.083 131.812 157.667 135.167 154.875 137.25C157.042 138.5 158.417 140.729 159 143.938C159.083 144.479 159.146 144.979 159.188 145.438L160.25 159H153.75L152.812 147.875C152.479 144.375 151.542 142.167 150 141.25C149.083 140.792 147.938 140.562 146.562 140.562H142.938ZM162.75 122.062V115.25H189.812V122.062H179.812V159H172.812V122.062H162.75ZM193.438 159V115.25H216.188V122.125H200.438V133.75H210.312V140.75H200.438V152.062H216.188V159H193.438ZM221.25 159V126.375H221.75L228.25 136.812V159H221.25ZM221.25 119.75V115.25H227.062L249.062 150.562V159H245.688L221.25 119.75ZM242.062 133.5V115.25H249.062V143.938H248.562L242.062 133.5Z" fill="white"/>
<path d="M72.984 195.3C72.984 192.733 73.5266 190.768 74.612 189.404C75.6973 188.025 77.2446 187.336 79.254 187.336C80.3393 187.336 81.278 187.527 82.07 187.908C82.862 188.289 83.5146 188.832 84.028 189.536C84.556 190.225 84.9446 191.061 85.194 192.044C85.4433 193.012 85.568 194.097 85.568 195.3C85.568 197.867 85.018 199.839 83.918 201.218C82.8326 202.582 81.278 203.264 79.254 203.264C78.1833 203.264 77.252 203.073 76.46 202.692C75.6826 202.311 75.03 201.775 74.502 201.086C73.9886 200.382 73.6073 199.546 73.358 198.578C73.1086 197.595 72.984 196.503 72.984 195.3ZM74.92 195.3C74.92 196.151 75.0006 196.957 75.162 197.72C75.338 198.483 75.602 199.157 75.954 199.744C76.306 200.316 76.7533 200.778 77.296 201.13C77.8533 201.467 78.506 201.636 79.254 201.636C80.618 201.636 81.6886 201.123 82.466 200.096C83.2433 199.055 83.632 197.456 83.632 195.3C83.632 194.464 83.544 193.665 83.368 192.902C83.2066 192.125 82.9426 191.45 82.576 190.878C82.224 190.291 81.7693 189.829 81.212 189.492C80.6693 189.14 80.0166 188.964 79.254 188.964C77.9046 188.964 76.8413 189.485 76.064 190.526C75.3013 191.553 74.92 193.144 74.92 195.3ZM88.661 187.6C88.9397 187.556 89.2477 187.527 89.585 187.512C89.937 187.483 90.2963 187.468 90.663 187.468C91.0443 187.453 91.411 187.446 91.763 187.446C92.1297 187.431 92.467 187.424 92.775 187.424C94.007 187.424 95.0703 187.615 95.965 187.996C96.8743 188.377 97.6223 188.913 98.209 189.602C98.7957 190.277 99.2283 191.091 99.507 192.044C99.8003 192.997 99.947 194.046 99.947 195.19C99.947 196.231 99.8077 197.236 99.529 198.204C99.265 199.157 98.8397 200.008 98.253 200.756C97.6663 201.489 96.9037 202.083 95.965 202.538C95.0263 202.978 93.8897 203.198 92.555 203.198C92.3203 203.198 92.0123 203.191 91.631 203.176C91.2643 203.176 90.883 203.161 90.487 203.132C90.091 203.117 89.7243 203.103 89.387 203.088C89.0497 203.073 88.8077 203.051 88.661 203.022V187.6ZM92.819 189.052C92.6283 189.052 92.4157 189.052 92.181 189.052C91.961 189.052 91.741 189.059 91.521 189.074C91.301 189.089 91.0957 189.103 90.905 189.118C90.729 189.133 90.5897 189.147 90.487 189.162V201.482C90.5603 201.497 90.6997 201.511 90.905 201.526C91.1103 201.526 91.323 201.533 91.543 201.548C91.763 201.548 91.9757 201.555 92.181 201.57C92.3863 201.57 92.5257 201.57 92.599 201.57C93.6257 201.57 94.4837 201.394 95.173 201.042C95.877 200.69 96.4343 200.221 96.845 199.634C97.2703 199.033 97.571 198.351 97.747 197.588C97.923 196.811 98.011 196.011 98.011 195.19C98.011 194.471 97.9303 193.753 97.769 193.034C97.6077 192.301 97.329 191.641 96.933 191.054C96.537 190.467 96.0017 189.991 95.327 189.624C94.667 189.243 93.831 189.052 92.819 189.052ZM103.056 187.6H111.438V189.228H104.882V194.266H110.888V195.894H104.882V201.372H111.548V203H103.056V187.6ZM121.802 199.084C121.802 198.468 121.619 197.969 121.252 197.588C120.886 197.192 120.424 196.847 119.866 196.554C119.324 196.246 118.73 195.96 118.084 195.696C117.439 195.432 116.838 195.117 116.28 194.75C115.738 194.369 115.283 193.907 114.916 193.364C114.55 192.807 114.366 192.103 114.366 191.252C114.366 190.049 114.784 189.096 115.62 188.392C116.456 187.688 117.644 187.336 119.184 187.336C120.079 187.336 120.893 187.402 121.626 187.534C122.36 187.666 122.932 187.835 123.342 188.04L122.792 189.646C122.455 189.485 121.956 189.331 121.296 189.184C120.651 189.037 119.918 188.964 119.096 188.964C118.128 188.964 117.402 189.184 116.918 189.624C116.434 190.049 116.192 190.555 116.192 191.142C116.192 191.714 116.376 192.191 116.742 192.572C117.109 192.953 117.564 193.298 118.106 193.606C118.664 193.899 119.265 194.193 119.91 194.486C120.556 194.779 121.15 195.124 121.692 195.52C122.25 195.901 122.712 196.363 123.078 196.906C123.445 197.449 123.628 198.123 123.628 198.93C123.628 199.59 123.511 200.184 123.276 200.712C123.042 201.24 122.697 201.695 122.242 202.076C121.788 202.457 121.238 202.751 120.592 202.956C119.947 203.161 119.214 203.264 118.392 203.264C117.292 203.264 116.383 203.176 115.664 203C114.946 202.839 114.388 202.655 113.992 202.45L114.608 200.8C114.946 200.991 115.444 201.181 116.104 201.372C116.764 201.548 117.505 201.636 118.326 201.636C118.81 201.636 119.265 201.592 119.69 201.504C120.116 201.401 120.482 201.247 120.79 201.042C121.098 200.822 121.34 200.551 121.516 200.228C121.707 199.905 121.802 199.524 121.802 199.084ZM133.864 198.732H128.188L126.648 203H124.844L130.674 187.358H131.51L137.362 203H135.448L133.864 198.732ZM128.782 197.148H133.314L131.598 192.462L131.048 190.13H131.026L130.476 192.506L128.782 197.148ZM170.81 187.6H172.57V197.874C172.57 198.798 172.445 199.597 172.196 200.272C171.961 200.947 171.616 201.504 171.162 201.944C170.722 202.369 170.186 202.685 169.556 202.89C168.925 203.095 168.228 203.198 167.466 203.198C165.647 203.198 164.276 202.787 163.352 201.966C162.428 201.145 161.966 199.898 161.966 198.226V187.6H163.792V197.368C163.792 198.145 163.865 198.805 164.012 199.348C164.173 199.876 164.408 200.309 164.716 200.646C165.024 200.969 165.405 201.203 165.86 201.35C166.329 201.497 166.872 201.57 167.488 201.57C168.676 201.57 169.526 201.247 170.04 200.602C170.553 199.942 170.81 198.864 170.81 197.368V187.6ZM179.177 195.872H178.143V203H176.317V187.6H178.143V194.772L179.133 194.464L184.303 187.6H186.415L181.267 194.222L180.343 194.948L181.465 195.828L187.097 203H184.787L179.177 195.872ZM189.745 187.754C190.302 187.651 190.94 187.571 191.659 187.512C192.392 187.453 193.06 187.424 193.661 187.424C194.336 187.424 194.974 187.497 195.575 187.644C196.191 187.791 196.726 188.033 197.181 188.37C197.65 188.707 198.024 189.147 198.303 189.69C198.582 190.233 198.721 190.893 198.721 191.67C198.721 192.873 198.391 193.848 197.731 194.596C197.071 195.344 196.235 195.843 195.223 196.092L196.279 196.906L200.107 203H197.973L193.727 196.356L191.571 196.026V203H189.745V187.754ZM193.705 189.008C193.514 189.008 193.316 189.008 193.111 189.008C192.906 189.008 192.708 189.015 192.517 189.03C192.326 189.045 192.143 189.059 191.967 189.074C191.806 189.089 191.674 189.111 191.571 189.14V194.816H193.287C194.299 194.816 195.135 194.567 195.795 194.068C196.455 193.569 196.785 192.792 196.785 191.736C196.785 190.944 196.514 190.291 195.971 189.778C195.428 189.265 194.673 189.008 193.705 189.008ZM209.575 198.732H203.899L202.359 203H200.555L206.385 187.358H207.221L213.073 203H211.159L209.575 198.732ZM204.493 197.148H209.025L207.309 192.462L206.759 190.13H206.737L206.187 192.506L204.493 197.148ZM215.536 187.6H217.362V203H215.536V187.6ZM224.292 192.924L223.104 190.702H223.016L223.236 192.924V203H221.52V187.358H222.488L229.858 197.632L231.002 199.744H231.112L230.87 197.632V187.6H232.586V203.242H231.618L224.292 192.924ZM236.323 187.6H244.705V189.228H238.149V194.266H244.155V195.894H238.149V201.372H244.815V203H236.323V187.6Z" fill="white"/>
<line x1="70" y1="174" x2="249" y2="174" stroke="white" stroke-width="2"/>
<circle cx="148.5" cy="195.5" r="3.5" fill="#D9D9D9"/>
</svg>
